<svg xmlns="http://www.w3.org/2000/svg" width="198" height="104" fill="none" viewBox="0 0 198 104">
  <path stroke="#fff" stroke-width="2" d="M44.852 45.072v11.982l11.06 6.276m-11.06-18.258 11.06 5.991m-11.06-5.99 11.06-6.922 11.058 6.921M55.91 63.33V51.063m0 12.267 11.059-6.276V45.072M55.91 51.063l11.059-5.99M2 18.216l.376 66.75M2 18.215l16.618 4.877M2 18.216l18.992-5.766M2.376 84.965 39.39 73.892M2.377 84.965l17.429 5.598m19.586-16.671V29.189m0 44.703 16.52-4.803 15.758 4.803m-32.278 0 53.414 16.443M39.39 29.189l16.52 5.09 15.759-4.954m-32.278-.136-20.773-6.096m20.773 6.096 53.414-16.32m17.212 72.096V18.216m0 66.75-17.212 5.369m17.212-5.37-17.212-4.97m17.212-61.779-17.212-5.348m17.212 5.348-17.212 5.17m-20.772 73.43L55.415 102l-16.142-5.184m32.76 0L18.618 79.838V23.093m53.415 73.722 20.772-6.48m-73 .228 51.864-16.671M19.805 90.563l19.468 6.252m32.396-22.923 21.136 6.103M71.67 73.892V29.325m-32.396 67.49 53.532-16.82m0 0v-56.61m-74.187-.292 53.05-16.368m0 0L55.415 2 39.853 6.725m31.816 0 21.136 6.143M71.67 29.325l21.136-5.94m-21.136 5.94L20.992 12.45m71.813 10.936L39.853 6.725M20.992 12.45l18.86-5.725"/>
  <path fill="#fff" d="M174.299 31.723c0 3.883-.73 7.13-2.191 9.74-1.46 2.594-3.578 4.551-6.353 5.872-2.759 1.305-6.11 1.957-10.053 1.957h-9.664V14.814h10.735c3.619 0 6.735.644 9.347 1.933 2.613 1.274 4.625 3.169 6.037 5.684 1.428 2.5 2.142 5.597 2.142 9.292Zm-4.357.141c0-3.097-.536-5.652-1.607-7.664-1.054-2.013-2.612-3.506-4.673-4.481-2.045-.99-4.552-1.486-7.522-1.486h-5.964V45.85h5.039c4.901 0 8.577-1.171 11.027-3.514 2.467-2.342 3.7-5.833 3.7-10.47Zm-31.312-9.009c0 1.541-.308 2.878-.925 4.01a7.669 7.669 0 0 1-2.58 2.783c-1.103.707-2.402 1.202-3.895 1.485v.189c2.824.346 4.942 1.226 6.354 2.641 1.428 1.415 2.142 3.27 2.142 5.566 0 1.997-.487 3.765-1.461 5.306-.957 1.541-2.434 2.752-4.43 3.632-1.98.865-4.519 1.297-7.619 1.297-1.882 0-3.627-.15-5.233-.448a18.616 18.616 0 0 1-4.577-1.439V44.2a23.696 23.696 0 0 0 4.82 1.674c1.736.393 3.416.59 5.039.59 3.245 0 5.59-.622 7.034-1.864 1.445-1.257 2.167-2.971 2.167-5.14 0-1.494-.406-2.697-1.217-3.609-.795-.928-1.948-1.604-3.457-2.028-1.493-.44-3.294-.66-5.404-.66h-3.554v-3.35h3.579c1.931 0 3.57-.274 4.917-.825 1.347-.55 2.369-1.32 3.067-2.311.714-1.006 1.071-2.193 1.071-3.561 0-1.745-.601-3.09-1.801-4.033-1.201-.959-2.832-1.438-4.893-1.438-1.266 0-2.418.125-3.457.377a14.538 14.538 0 0 0-2.921 1.038c-.908.44-1.817.95-2.726 1.532l-2.045-2.688c1.299-.975 2.881-1.816 4.747-2.523 1.866-.708 3.984-1.062 6.353-1.062 3.635 0 6.362.802 8.179 2.406 1.818 1.604 2.726 3.647 2.726 6.131Zm34.736 34.22h10.078c4.446 0 7.789.645 10.029 1.934 2.239 1.29 3.359 3.482 3.359 6.58 0 1.336-.268 2.539-.804 3.608a6.776 6.776 0 0 1-2.288 2.618c-1.006.691-2.247 1.17-3.724 1.438v.236c1.558.236 2.937.668 4.138 1.297a7.039 7.039 0 0 1 2.824 2.641c.681 1.132 1.022 2.571 1.022 4.316 0 2.123-.511 3.915-1.533 5.377-1.006 1.462-2.435 2.57-4.285 3.325-1.849.74-4.04 1.109-6.572 1.109h-12.244V57.075Zm4.138 14.787h6.816c3.1 0 5.242-.495 6.426-1.486 1.201-.99 1.802-2.437 1.802-4.34 0-1.965-.714-3.38-2.142-4.244-1.412-.865-3.668-1.297-6.767-1.297h-6.135v11.367Zm0 3.372v12.9h7.4c3.165 0 5.404-.597 6.719-1.792 1.314-1.21 1.971-2.838 1.971-4.882 0-1.305-.3-2.421-.9-3.349-.585-.927-1.542-1.635-2.873-2.122-1.314-.503-3.075-.755-5.282-.755h-7.035Zm-11.935 16.32-4.382-10.943h-14.264l-4.357 10.943h-4.187l13.923-34.62h3.725l13.826 34.62h-4.284Zm-5.623-14.504-4.163-10.872c-.097-.283-.259-.747-.486-1.391l-.658-2.005c-.227-.692-.414-1.25-.56-1.674-.162.644-.34 1.289-.535 1.934a49.91 49.91 0 0 1-.998 3.136L148.31 77.05h11.636Zm-43.702 14.504V57.075h4.138v30.894h15.798v3.585h-19.936Z"/>
</svg>
